HIERARCHY
ROOT ui
{
	 OFFSET 0 0 0
	 CHANNELS 3 XPosition YPosition Z Position
	 EndSite
	 {
	 OFFSET 0 -1 0
	 }
}
ROOT li
{
	 OFFSET 0 0 0
	 CHANNELS 3 XPosition YPosition Z Position
	 EndSite
	 {
	 OFFSET 0 -1 0
	 }
}
ROOT ul
{
	 OFFSET 0 0 0
	 CHANNELS 3 XPosition YPosition Z Position
	 EndSite
	 {
	 OFFSET 0 -1 0
	 }
}
ROOT ll
{
	 OFFSET 0 0 0
	 CHANNELS 3 XPosition YPosition Z Position
	 EndSite
	 {
	 OFFSET 0 -1 0
	 }
}
ROOT tt
{
	 OFFSET 0 0 0
	 CHANNELS 3 XPosition YPosition Z Position
	 EndSite
	 {
	 OFFSET 0 -1 0
	 }
}
ROOT tb
{
	 OFFSET 0 0 0
	 CHANNELS 3 XPosition YPosition Z Position
	 EndSite
	 {
	 OFFSET 0 -1 0
	 }
}
ROOT td
{
	 OFFSET 0 0 0
	 CHANNELS 3 XPosition YPosition Z Position
	 EndSite
	 {
	 OFFSET 0 -1 0
	 }
}
ROOT v
{
	 OFFSET 0 0 0
	 CHANNELS 3 XPosition YPosition Z Position
	 EndSite
	 {
	 OFFSET 0 -1 0
	 }
}
ROOT bn
{
	 OFFSET 0 0 0
	 CHANNELS 3 XPosition YPosition Z Position
	 EndSite
	 {
	 OFFSET 0 -1 0
	 }
}
MOTION
Frames: 24
Frame Time: 0.002
-0.006941839218139649	6.10837996006012E-4	0		0.43718777465820313	-2.34986181640625	0		-1.0662396240234375	-0.009297174453735351	0		-0.83025927734375	-2.24339599609375	0		1.6239696044921874	-0.5757813110351563	0		3.283064208984375	-0.14949763488769532	0		4.6151484375	-0.05431304168701172	0		5.527419921875	0.10231927490234374	0		-0.1577371826171875	5.9018125	0		
-0.010044721603393555	-0.003251310110092163	0		0.4362004089355469	-2.35174072265625	0		-0.9953678588867187	-0.015388327598571777	0		-0.7922554931640625	-2.24594775390625	0		1.6249510498046875	-0.5756503295898437	0		3.258082275390625	-0.14588948059082033	0		4.6178642578125	-0.06911844635009766	0		5.51766845703125	0.1207637939453125	0		-0.15796980285644532	5.90289599609375	0		
-1.5850099921226502E-4	-0.0043227458000183105	0		0.3941790466308594	-2.35196044921875	0		-1.0584556884765626	-0.014323156356811523	0		-0.8631484375	-2.23774755859375	0		1.63176220703125	-0.5826131591796875	0		3.26894140625	-0.14885743713378907	0		4.60887841796875	-0.06172955322265625	0		5.52927685546875	0.10286417388916015	0		-0.1411554718017578	5.91070556640625	0		
0.003735255002975464	-0.001299828052520752	0		0.45308877563476563	-2.353803955078125	0		-1.0494981689453124	-0.007420175075531006	0		-0.855108154296875	-2.2308212890625	0		1.65053125	-0.5887689208984375	0		3.293966064453125	-0.13805076599121094	0		4.61483251953125	-0.05458110046386719	0		5.52423193359375	0.11023609161376953	0		-0.13954515075683593	5.909755859375	0		
-3.948419988155365E-4	0.0038474490642547605	0		0.41714633178710936	-2.34212890625	0		-1.0586912841796876	-0.006231659889221191	0		-0.785404541015625	-2.241887451171875	0		1.63366455078125	-0.5683543701171875	0		3.26471630859375	-0.1403801727294922	0		4.6186337890625	-0.05340253448486328	0		5.530904296875	0.10341461181640625	0		-0.1560857391357422	5.90309130859375	0		
0.0022103691101074217	-0.004120494842529297	0		0.4428824768066406	-2.347448974609375	0		-0.9880305786132813	-0.011323735237121582	0		-0.7866207885742188	-2.243821044921875	0		1.631355224609375	-0.57218310546875	0		3.265454833984375	-0.14019755554199217	0		4.5953984375	-0.05080048370361328	0		5.510939453125	0.12301290130615235	0		-0.1545849609375	5.90213232421875	0		
-0.029027917861938476	0.0014451359510421753	0		0.37882635498046874	-2.33534326171875	0		-1.061326904296875	-0.009123889923095704	0		-0.7858638916015624	-2.2437919921875	0		1.629005859375	-0.575020751953125	0		3.272009521484375	-0.14812028503417968	0		4.6100712890625	-0.050817092895507815	0		5.53230810546875	0.10393182373046875	0		-0.1550987548828125	5.90319970703125	0		
0.003513432025909424	-0.0040140080451965335	0		0.44434500122070314	-2.3473125	0		-1.0607017822265625	-0.009109244346618653	0		-0.8590765380859375	-2.23759326171875	0		1.650392822265625	-0.5912493286132813	0		3.276892822265625	-0.13202886962890625	0		4.606677734375	-0.05156398010253906	0		5.51804248046875	0.11140045928955078	0		-0.2927774658203125	5.8974375	0		
0.004089907169342041	-0.003972459077835083	0		0.40298086547851564	-2.347591552734375	0		-1.05201513671875	-0.0022271909713745116	0		-0.7824905395507813	-2.2417822265625	0		1.648145751953125	-0.5811123046875	0		3.26734765625	-0.13973002624511718	0		4.615376953125	-0.04352330780029297	0		5.53761328125	0.11130538177490235	0		-0.13912687683105468	5.9120419921875	0		
0.002750457048416138	0.0040914521217346195	0		0.4387625122070313	-2.336103271484375	0		-1.05959130859375	-0.00909455394744873	0		-0.8656809692382812	-2.22744189453125	0		1.64869482421875	-0.5810352783203125	0		3.267885009765625	-0.13960986328125	0		4.6029091796875	-0.04317079162597656	0		5.53814404296875	0.11148600769042968	0		-0.15290728759765626	5.90229443359375	0		
0.005119750022888184	-0.00391406798362732	0		0.44613845825195314	-2.34717724609375	0		-0.9851201171875	-0.011263774871826173	0		-0.783380126953125	-2.243731201171875	0		1.6402529296875	-0.577829833984375	0		3.28438232421875	-0.13976133728027343	0		4.631146484375	-0.05948690795898438	0		5.53452734375	0.10470458984375	0		-0.1535332489013672	5.90333154296875	0		
6.623870134353638E-4	0.0011815780401229858	0		0.445616943359375	-2.349135009765625	0		-0.9846568603515625	-0.011266231536865234	0		-0.8198203125	-2.24014599609375	0		1.6317760009765625	-0.5746380615234375	0		3.26297705078125	-0.1313321533203125	0		4.61686181640625	-0.04314927673339844	0		5.5249892578125	0.10499034118652344	0		-0.15318827819824218	5.903345703125	0		
0.0010959359407424927	0.0011914529800415039	0		0.40307867431640626	-2.349439697265625	0		-0.978302734375	-0.01636652946472168	0		-0.78240185546875	-2.243732666015625	0		1.652964111328125	-0.5909306030273438	0		3.275158935546875	-0.14745594787597657	0		4.6231513671875	-0.05216284942626953	0		5.535419921875	0.10493323516845703	0		-0.28521368408203124	5.8814375	0		
0.00947053337097168	-9.31423008441925E-4	0		0.4055472412109375	-2.34746337890625	0		-1.0437611083984375	-0.0073372721672058105	0		-0.8388958129882812	-2.23884228515625	0		1.6594884033203126	-0.5840018310546875	0		3.272009765625	-0.11935139465332031	0		4.604701171875	-0.04280677032470703	0		5.54404541015625	0.1188794937133789	0		-0.13639631652832032	5.9111005859375	0		
0.009853226661682129	-9.349979758262635E-4	0		0.44999429321289064	-2.34515625	0		-0.9793863525390625	-0.008358766555786133	0		-0.7795303344726563	-2.24178271484375	0		1.650925048828125	-0.5808482055664063	0		3.26420556640625	-0.13119610595703124	0		4.61623876953125	-0.03294393920898438	0		5.53620751953125	0.10505689239501953	0		-0.13803878784179688	5.913126953125	0		
0.002244348049163818	0.001180901050567627	0		0.412515380859375	-2.335566162109375	0		-1.0570494384765625	-0.00914736557006836	0		-0.8530684814453126	-2.2356337890625	0		1.6423359375	-0.5777054443359375	0		3.2475830078125	-0.1299161376953125	0		4.6003310546875	-0.04967061614990234	0		5.52656640625	0.10524237060546875	0		-0.1518762969970703	5.903337890625	0		
0.007498250961303711	-0.003912636041641235	0		0.44764984130859375	-2.34912890625	0		-0.9827410888671875	-0.011331752777099609	0		-0.7808446044921875	-2.24378515625	0		1.645498291015625	-0.5887596435546875	0		3.270772216796875	-0.13927828979492188	0		4.614662109375	-0.04988788604736328	0		5.517900390625	0.10539257049560546	0		-0.1515688018798828	5.90332177734375	0		
0.0028824150562286378	0.0011450010538101196	0		0.4049488525390625	-2.349471923828125	0		-1.0564112548828124	-0.009189919471740722	0		-0.8544475708007813	-2.237643310546875	0		1.654771728515625	-0.590918212890625	0		3.253457275390625	-0.11501217651367188	0		4.606078125	-0.042759361267089846	0		5.52231494140625	0.11231897735595703	0		-0.13613555908203126	5.91206396484375	0		
0.006201612949371338	0.004072947978973389	0		0.4512928466796875	-2.345220947265625	0		-1.0421092529296876	-0.00743432092666626	0		-0.8491141967773438	-2.23374658203125	0		1.658090576171875	-0.5879912109375	0		3.265476318359375	-0.13122532653808594	0		4.61934912109375	-0.042990798950195315	0		5.52258740234375	0.11229135894775391	0		-0.27015792846679687	5.894150390625	0		
-0.014623964309692383	3.761169910430908E-4	0		0.39760589599609375	-2.33940087890625	0		-1.0559041748046876	-0.009238395690917969	0		-0.8149533081054687	-2.238306396484375	0		1.658323486328125	-0.5880239868164062	0		3.265710693359375	-0.13126296997070314	0		4.60375927734375	-0.03178104400634765	0		5.5269951171875	0.12318260192871094	0		-0.1507470245361328	5.90324951171875	0		
0.003581568956375122	0.0010619230270385743	0		0.4496692810058594	-2.34725146484375	0		-0.9817371826171875	-0.011428563117980958	0		-0.8147727661132812	-2.2383330078125	0		1.6554656982421876	-0.5910156860351562	0		3.265902099609375	-0.13131050109863282	0		4.61793408203125	-0.03305390930175781	0		5.53131298828125	0.13105950927734375	0		-0.15052471923828126	5.90321923828125	0		
-0.023269838333129882	0.001453248977661133	0		0.4218021545410156	-2.346847412109375	0		-1.0555670166015625	-0.00929051971435547	0		-0.7895985107421875	-2.23575537109375	0		1.6525443115234375	-0.5950130004882812	0		3.239096923828125	-0.12794154357910156	0		4.611703125	-0.057019088745117186	0		5.538048828125	0.1048813247680664	0		-0.15132382202148437	5.9042021484375	0		
0.008743629455566407	-0.004087423801422119	0		0.4577019653320312	-2.358453857421875	0		-0.9755753784179687	-0.016579204559326172	0		-0.853559326171875	-2.237777587890625	0		1.655698486328125	-0.5911111450195312	0		3.255032470703125	-0.13825537109375	0		4.60191162109375	-0.04993346405029297	0		5.5232578125	0.11203560638427734	0		-0.148244140625	5.900119140625	0		
-0.014143672943115235	2.3371000587940217E-4	0		0.40992294311523436	-2.34574365234375	0		-1.03734765625	-0.004635321140289307	0		-0.7735108642578125	-2.237072265625	0		1.6587869873046874	-0.5882144165039063	0		3.274375244140625	-0.11962714385986328	0		4.6093525390625	-0.025125656127929687	0		5.5464130859375	0.11858208465576171	0		-0.11980148315429688	5.92163525390625	0		
